<?xml version="1.0" standalone="no"?><!DOCTYPE svg PUBLIC "-//W3C//DTD SVG 1.1//EN" "http://www.w3.org/Graphics/SVG/1.1/DTD/svg11.dtd"><svg t="1641463410310" class="icon" viewBox="0 0 1185 1024" version="1.1" xmlns="http://www.w3.org/2000/svg" p-id="35475" xmlns:xlink="http://www.w3.org/1999/xlink" width="27.7734375" height="24"><defs><style type="text/css"></style></defs><path d="M140.126 272.168H8.084v220.969h1172.21V272.168h-137.43z" fill="#FDE466" p-id="35476"></path><path d="M1040.168 118.568v156.295h134.737v-107.79c0-78.147-61.979-145.515-134.737-158.989v110.484zM140.126 10.778C67.368 24.254 8.084 88.927 8.084 167.075v113.179h132.042V10.779z" fill="#FDE670" p-id="35477"></path><path d="M134.737 361.095h374.568V121.263H134.737v239.832z m541.642-239.832V363.79h366.484V121.263H676.38z" fill="#F2573B" p-id="35478"></path><path d="M509.305 8.084v266.78l167.074-2.696V8.084z" fill="#FFA371" p-id="35479"></path><path d="M169.768 8.084h-29.642v113.18H512V8.083H169.768z m506.61 0v113.18h366.485V8.083c-10.779-2.695-21.558-2.695-26.947-2.695H676.379v2.695z" fill="#E1462A" p-id="35480"></path><path d="M8.084 856.926c0 88.927 70.063 156.295 161.684 156.295h851.537c91.621 0 161.684-61.979 161.684-153.6V460.8H8.084v396.126z" fill="#F9C45A" p-id="35481"></path><path d="M137.432 649.432h913.515v-59.285H137.432z" fill="#D7341F" p-id="35482"></path><path d="M137.432 891.958h913.515V649.432H137.432z" fill="#EB492C" p-id="35483"></path><path d="M398.821 455.41c0 113.18 91.621 204.8 204.8 204.8 51.2 0 102.4-21.557 140.126-53.894L452.716 315.284c-35.032 37.727-53.895 86.232-53.895 140.127m414.99 0c0-113.18-91.622-204.8-204.8-204.8-21.558 0-43.116 2.694-59.285 10.778l258.695 256c0-21.557 5.39-40.42 5.39-61.978" fill="#FCD134" p-id="35484"></path><path d="M803.032 512L544.337 256c-35.032 10.779-70.063 29.642-94.316 56.59l288.337 288.336c32.337-18.863 53.895-51.2 64.674-88.926" fill="#FFE786" p-id="35485"></path><path d="M493.137 455.41c0-61.978 51.2-113.178 110.484-113.178 59.284 0 110.484 51.2 110.484 113.179s-51.2 113.178-110.484 113.178c-59.284 0-110.484-51.2-110.484-113.178z" fill="#E56049" p-id="35486"></path><path d="M840.758 43.116c0 99.705-80.842 180.547-180.547 180.547 102.4 0 180.547 80.842 180.547 180.548 0-99.706 80.842-180.548 180.547-180.548-97.01 0-180.547-80.842-180.547-180.547m-557.81 43.116c0 99.705-80.843 180.547-180.548 180.547 102.4 0 180.547 80.842 180.547 180.547 0-99.705 80.842-180.547 180.548-180.547-99.706-2.695-180.548-83.537-180.548-180.547" fill="#FFFFFF" p-id="35487"></path></svg>